<?xml version="1.0" standalone="no"?>
<!DOCTYPE svg PUBLIC "-//W3C//DTD SVG 20010904//EN"
 "http://www.w3.org/TR/2001/REC-SVG-20010904/DTD/svg10.dtd">
<svg version="1.0" xmlns="http://www.w3.org/2000/svg"
 width="256.000000pt" height="256.000000pt" viewBox="0 0 256.000000 256.000000"
 preserveAspectRatio="xMidYMid meet">

<g transform="translate(0.000000,256.000000) scale(0.100000,-0.100000)"
fill="#000000" stroke="none">
<path d="M495 2543 c-233 -32 -410 -194 -463 -423 -15 -68 -17 -149 -17 -840
0 -700 1 -771 18 -830 54 -198 163 -316 367 -394 54 -20 70 -21 835 -24 559
-3 800 0 850 8 43 7 105 29 161 55 112 54 190 133 240 240 58 127 57 112 61
875 5 737 0 868 -37 974 -56 165 -180 282 -360 342 -51 17 -107 19 -840 20
-432 1 -798 0 -815 -3z m-10 -830 c-14 -92 -15 -93 -99 -93 -41 0 -77 4 -81 9
-5 9 8 84 20 119 3 8 30 12 86 12 l81 0 -7 -47z m410 37 c25 -9 26 -13 20 -53
-4 -23 -9 -45 -11 -48 -2 -3 -25 -1 -52 4 -79 17 -116 -3 -137 -70 -6 -22 -4
-23 56 -23 l62 0 -7 -42 c-4 -22 -9 -45 -12 -50 -3 -4 -31 -8 -63 -8 l-57 0
-50 -247 -50 -248 -82 -3 c-78 -3 -82 -2 -82 19 0 11 20 122 45 246 25 123 45
226 45 229 0 2 -12 4 -26 4 -25 0 -26 2 -20 42 9 53 12 58 41 58 20 0 30 11
52 56 47 96 124 143 235 144 37 0 79 -5 93 -10z m1475 -1 c0 -7 -29 -155 -65
-331 -36 -176 -65 -322 -65 -324 0 -2 -38 -4 -85 -4 l-86 0 7 38 7 37 -29 -27
c-65 -61 -179 -78 -227 -34 -41 38 -52 91 -33 165 43 167 174 291 308 291 l57
0 10 38 c5 20 15 65 22 100 l12 62 83 0 c56 0 84 -4 84 -11z m-1169 -210 c54
-27 79 -71 79 -139 0 -117 -100 -256 -216 -300 -111 -41 -235 -19 -285 51 -66
92 5 284 133 365 87 55 208 65 289 23z m519 1 c60 -30 85 -73 83 -142 -2 -108
-78 -224 -185 -284 -48 -26 -62 -29 -144 -29 -82 0 -94 3 -131 27 -29 19 -46
40 -58 73 -17 42 -17 49 -1 112 33 135 125 231 253 263 52 13 137 4 183 -20z
m-1270 3 c-1 -10 -20 -115 -43 -233 l-42 -215 -74 -3 c-41 -2 -80 -1 -86 2
-10 3 -2 59 31 223 25 120 46 224 49 231 3 8 29 12 85 12 70 0 80 -2 80 -17z
m290 -633 c111 -172 332 -226 554 -135 67 27 156 85 156 100 -1 6 -22 26 -48
45 l-47 35 159 3 c87 1 161 0 164 -2 7 -8 -60 -336 -69 -336 -4 0 -15 22 -24
50 -9 27 -21 52 -26 55 -5 4 -24 -5 -42 -19 -51 -39 -157 -85 -233 -101 -135
-29 -263 -14 -367 42 -62 34 -153 133 -183 198 -24 52 -41 115 -31 115 3 0 19
-23 37 -50z"/>
</g>
</svg>
