<?xml version="1.0" encoding="utf-8"?>
<!-- Generator: Adobe Illustrator 24.2.1, SVG Export Plug-In . SVG Version: 6.00 Build 0)  -->
<svg version="1.1" id="Camada_1" xmlns="http://www.w3.org/2000/svg" xmlns:xlink="http://www.w3.org/1999/xlink" x="0px" y="0px"
	 viewBox="0 0 256 256" style="enable-background:new 0 0 256 256;" xml:space="preserve">
<style type="text/css">
	.st0{display:none;}
	.st1{display:inline;}
	.st2{fill:url(#SVGID_1_);}
	.st3{fill:url(#SVGID_2_);}
	.st4{fill:url(#SVGID_3_);}
	.st5{fill:url(#SVGID_4_);}
	.st6{fill:url(#SVGID_5_);}
	.st7{fill:url(#SVGID_6_);}
	.st8{fill:url(#SVGID_7_);}
	.st9{fill:url(#SVGID_8_);}
</style>
<g transform="translate(0.000000,256.000000) scale(0.100000,-0.100000)" class="st0">
	<path class="st1" d="M495,2543c-233-32-410-194-463-423c-15-68-17-149-17-840c0-700,1-771,18-830C87,252,196,134,400,56
		c54-20,70-21,835-24c559-3,800,0,850,8c43,7,105,29,161,55c112,54,190,133,240,240c58,127,57,112,61,875c5,737,0,868-37,974
		c-56,165-180,282-360,342c-51,17-107,19-840,20C878,2547,512,2546,495,2543z M485,1713c-14-92-15-93-99-93c-41,0-77,4-81,9
		c-5,9,8,84,20,119c3,8,30,12,86,12h81L485,1713z M895,1750c25-9,26-13,20-53c-4-23-9-45-11-48s-25-1-52,4c-79,17-116-3-137-70
		c-6-22-4-23,56-23h62l-7-42c-4-22-9-45-12-50c-3-4-31-8-63-8h-57l-50-247l-50-248l-82-3c-78-3-82-2-82,19c0,11,20,122,45,246
		c25,123,45,226,45,229c0,2-12,4-26,4c-25,0-26,2-20,42c9,53,12,58,41,58c20,0,30,11,52,56c47,96,124,143,235,144
		C839,1760,881,1755,895,1750z M2370,1749c0-7-29-155-65-331s-65-322-65-324s-38-4-85-4h-86l7,38l7,37l-29-27c-65-61-179-78-227-34
		c-41,38-52,91-33,165c43,167,174,291,308,291h57l10,38c5,20,15,65,22,100l12,62h83C2342,1760,2370,1756,2370,1749z M1201,1539
		c54-27,79-71,79-139c0-117-100-256-216-300c-111-41-235-19-285,51c-66,92,5,284,133,365C999,1571,1120,1581,1201,1539z M1720,1540
		c60-30,85-73,83-142c-2-108-78-224-185-284c-48-26-62-29-144-29s-94,3-131,27c-29,19-46,40-58,73c-17,42-17,49-1,112
		c33,135,125,231,253,263C1589,1573,1674,1564,1720,1540z M450,1543c-1-10-20-115-43-233l-42-215l-74-3c-41-2-80-1-86,2
		c-10,3-2,59,31,223c25,120,46,224,49,231c3,8,29,12,85,12C440,1560,450,1558,450,1543z M740,910c111-172,332-226,554-135
		c67,27,156,85,156,100c-1,6-22,26-48,45l-47,35l159,3c87,1,161,0,164-2c7-8-60-336-69-336c-4,0-15,22-24,50c-9,27-21,52-26,55
		c-5,4-24-5-42-19c-51-39-157-85-233-101c-135-29-263-14-367,42c-62,34-153,133-183,198c-24,52-41,115-31,115
		C706,960,722,937,740,910z"/>
</g>
<linearGradient id="SVGID_1_" gradientUnits="userSpaceOnUse" x1="128.5" y1="252.9141" x2="128.5" y2="4.0859">
	<stop  offset="0" style="stop-color:#B01D2C"/>
	<stop  offset="0.2168" style="stop-color:#C71D2C"/>
	<stop  offset="0.4739" style="stop-color:#DA1D2C"/>
	<stop  offset="0.7341" style="stop-color:#E61D2C"/>
	<stop  offset="1" style="stop-color:#EA1D2C"/>
</linearGradient>
<path class="st2" d="M208.5,252.9h-160C24,252.9,4.1,233,4.1,208.5v-160C4.1,24,24,4.1,48.5,4.1h160c24.5,0,44.4,19.9,44.4,44.4v160
	C252.9,233,233,252.9,208.5,252.9z"/>
<g>
	<linearGradient id="SVGID_2_" gradientUnits="userSpaceOnUse" x1="113.7088" y1="163.4662" x2="113.7088" y2="101.209">
		<stop  offset="0" style="stop-color:#BFBFBF"/>
		<stop  offset="9.600729e-02" style="stop-color:#CFCFCF"/>
		<stop  offset="0.2663" style="stop-color:#E4E4E4"/>
		<stop  offset="0.4552" style="stop-color:#F3F3F3"/>
		<stop  offset="0.6751" style="stop-color:#FCFCFC"/>
		<stop  offset="1" style="stop-color:#FFFFFF"/>
	</linearGradient>
	<path class="st3" d="M98.4,163.5L98.4,163.5c4.4,0,4.8-3.5,5.7-7.9l4.6-21.5l0,0c2-5.1,5.9-9,10.8-11.1c0.9-0.4,0.7-1.7-0.3-1.8
		l-7.5-0.5c1-4.6,4.9-9.6,12-9.7c3.6,0,7,0.2,10.4,1.8l1.8-9.5c-15.5-5.9-33.4,1.1-37.2,17.8h-5.6l-1.8,9H97L91.6,155
		C90.7,159.4,94,163.5,98.4,163.5z"/>
	<linearGradient id="SVGID_3_" gradientUnits="userSpaceOnUse" x1="65.6763" y1="165.9521" x2="65.6763" y2="85.5186">
		<stop  offset="0" style="stop-color:#BFBFBF"/>
		<stop  offset="9.600729e-02" style="stop-color:#CFCFCF"/>
		<stop  offset="0.2663" style="stop-color:#E4E4E4"/>
		<stop  offset="0.4552" style="stop-color:#F3F3F3"/>
		<stop  offset="0.6751" style="stop-color:#FCFCFC"/>
		<stop  offset="1" style="stop-color:#FFFFFF"/>
	</linearGradient>
	<path class="st4" d="M89.8,85.5h-8.5c-2.5,0-2.9,2.1-4.6,9.2l-4.6,32.4H58.9l4.3-30.7c0.3-1.9,0.2-3.9-0.2-5.7
		c-0.7-3.1-2.3-5.2-4.1-5.2h-8.5c-2.5,0-2.9,2.1-4.6,9.2L37,156.7c0,5.1,2,9.2,4.6,9.2H50c2.5,0,4.6-4.1,4.6-9.2l1.6-10.1h13.3
		l-1.6,10.1c0,5.1,2,9.2,4.6,9.2h8.5c2.5,0,4.6-4.1,4.6-9.2l8.9-61.9C94.3,89.7,92.3,85.5,89.8,85.5z"/>
	<g>
		<linearGradient id="SVGID_4_" gradientUnits="userSpaceOnUse" x1="67.2129" y1="233.3263" x2="96.8375" y2="25.4684">
			<stop  offset="0" style="stop-color:#B01D2C"/>
			<stop  offset="0.2168" style="stop-color:#C71D2C"/>
			<stop  offset="0.4739" style="stop-color:#DA1D2C"/>
			<stop  offset="0.7341" style="stop-color:#E61D2C"/>
			<stop  offset="1" style="stop-color:#EA1D2C"/>
		</linearGradient>
		<path class="st5" d="M84.5,104.9L84.5,104.9c-1.7,0-3.2,2.2-3.6,5.2l-3,23.2c-0.5,3.9,1.2,7.6,3.4,7.5l0,0c1.7,0,3.2-2.2,3.6-5.2
			l3-23.2C88.5,108.5,86.8,104.9,84.5,104.9z"/>
		<linearGradient id="SVGID_5_" gradientUnits="userSpaceOnUse" x1="67.8863" y1="233.4223" x2="97.5109" y2="25.5644">
			<stop  offset="0" style="stop-color:#B01D2C"/>
			<stop  offset="0.2168" style="stop-color:#C71D2C"/>
			<stop  offset="0.4739" style="stop-color:#DA1D2C"/>
			<stop  offset="0.7341" style="stop-color:#E61D2C"/>
			<stop  offset="1" style="stop-color:#EA1D2C"/>
		</linearGradient>
		<path class="st6" d="M83.4,150.5c-0.1,3.6-1.7,6.5-3.8,6.6c-2,0.1-3.7-2.8-3.6-6.4c0.1-3.6,1.7-6.5,3.8-6.6
			C81.8,144.1,83.4,146.9,83.4,150.5z"/>
	</g>
	<linearGradient id="SVGID_6_" gradientUnits="userSpaceOnUse" x1="130.5272" y1="164.1265" x2="130.5272" y2="123.1766">
		<stop  offset="0" style="stop-color:#BFBFBF"/>
		<stop  offset="9.600729e-02" style="stop-color:#CFCFCF"/>
		<stop  offset="0.2663" style="stop-color:#E4E4E4"/>
		<stop  offset="0.4552" style="stop-color:#F3F3F3"/>
		<stop  offset="0.6751" style="stop-color:#FCFCFC"/>
		<stop  offset="1" style="stop-color:#FFFFFF"/>
	</linearGradient>
	<path class="st7" d="M130.5,123.2c-11.3,0-20.5,9.2-20.5,20.5c0,11.3,9.2,20.5,20.5,20.5c11.3,0,20.5-9.2,20.5-20.5
		C151,132.3,141.8,123.2,130.5,123.2z M130.5,152.5c-4.9,0-8.9-4-8.9-8.9c0-4.9,4-8.9,8.9-8.9c4.9,0,8.9,4,8.9,8.9
		C139.4,148.6,135.4,152.5,130.5,152.5z"/>
	<linearGradient id="SVGID_7_" gradientUnits="userSpaceOnUse" x1="165.0434" y1="164.1265" x2="165.0434" y2="123.1766">
		<stop  offset="0" style="stop-color:#BFBFBF"/>
		<stop  offset="9.600729e-02" style="stop-color:#CFCFCF"/>
		<stop  offset="0.2663" style="stop-color:#E4E4E4"/>
		<stop  offset="0.4552" style="stop-color:#F3F3F3"/>
		<stop  offset="0.6751" style="stop-color:#FCFCFC"/>
		<stop  offset="1" style="stop-color:#FFFFFF"/>
	</linearGradient>
	<path class="st8" d="M165,123.2c-11.3,0-20.5,9.2-20.5,20.5c0,11.3,9.2,20.5,20.5,20.5c11.3,0,20.5-9.2,20.5-20.5
		C185.5,132.3,176.4,123.2,165,123.2z M165,152.5c-4.9,0-8.9-4-8.9-8.9c0-4.9,4-8.9,8.9-8.9c4.9,0,8.9,4,8.9,8.9
		C173.9,148.6,170,152.5,165,152.5z"/>
	<linearGradient id="SVGID_8_" gradientUnits="userSpaceOnUse" x1="201.2073" y1="166.0786" x2="201.2073" y2="102.2995">
		<stop  offset="0" style="stop-color:#BFBFBF"/>
		<stop  offset="9.600729e-02" style="stop-color:#CFCFCF"/>
		<stop  offset="0.2663" style="stop-color:#E4E4E4"/>
		<stop  offset="0.4552" style="stop-color:#F3F3F3"/>
		<stop  offset="0.6751" style="stop-color:#FCFCFC"/>
		<stop  offset="1" style="stop-color:#FFFFFF"/>
	</linearGradient>
	<path class="st9" d="M223.4,102.3h-7.1c-0.6,0-1.1,0.7-1.2,1.7l-2.9,24.6c-3.6-3.4-8.5-5.4-13.9-5.4c-11.3,0-20.5,9.2-20.5,20.5
		c0,11.3,9.2,20.5,20.5,20.5c4.4,0,8.5-1.4,11.9-3.8c1.2,3.4,3.4,5.8,6,5.8c0.6,0,1.1-0.7,1.2-1.7l7.2-59.5
		C224.8,103.5,224.2,102.3,223.4,102.3z M198.3,152.5c-4.9,0-8.9-4-8.9-8.9c0-4.9,4-8.9,8.9-8.9s8.9,4,8.9,8.9
		C207.2,148.6,203.2,152.5,198.3,152.5z"/>
</g>
</svg>
